<svg width="33" height="33" viewBox="0 0 33 33" fill="none" xmlns="http://www.w3.org/2000/svg">
<g clip-path="url(#clip0_1_69)">
<path d="M16.5 0.660034C7.75167 0.660034 0.659973 7.75174 0.659973 16.5C0.659973 25.2483 7.75167 32.34 16.5 32.34C25.2483 32.34 32.34 25.2483 32.34 16.5C32.34 7.75174 25.2483 0.660034 16.5 0.660034ZM12.6225 23.0654H9.41487V12.743H12.6225V23.0654ZM10.9989 11.4758C9.98577 11.4758 9.33072 10.758 9.33072 9.87033C9.33072 8.96448 10.0056 8.26818 11.0401 8.26818C12.0747 8.26818 12.7083 8.96448 12.7281 9.87033C12.7281 10.758 12.0747 11.4758 10.9989 11.4758ZM24.3375 23.0654H21.1299V17.3448C21.1299 16.0133 20.6646 15.1091 19.5046 15.1091C18.6186 15.1091 18.0922 15.7212 17.8596 16.3103C17.7738 16.5198 17.7523 16.8168 17.7523 17.1122V23.0637H14.5431V16.0347C14.5431 14.7461 14.5018 13.6686 14.4589 12.7413H17.2458L17.3926 14.1752H17.457C17.8794 13.502 18.9139 12.5087 20.6448 12.5087C22.7551 12.5087 24.3375 13.9227 24.3375 16.962V23.0654Z" fill="#3D445C"/>
</g>
<defs>
<clipPath id="clip0_1_69">
<rect width="33" height="33" fill="white"/>
</clipPath>
</defs>
</svg>
