<svg width="33" height="33" viewBox="0 0 33 33" fill="none" xmlns="http://www.w3.org/2000/svg">
<g clip-path="url(#clip0_1_71)">
<path d="M16.5 0.660034C7.75167 0.660034 0.659973 7.75174 0.659973 16.5C0.659973 25.2483 7.75167 32.34 16.5 32.34C25.2483 32.34 32.34 25.2483 32.34 16.5C32.34 7.75174 25.2483 0.660034 16.5 0.660034ZM22.9432 13.6356C22.9498 13.7709 22.9515 13.9062 22.9515 14.0382C22.9515 18.1632 19.8148 22.9169 14.0761 22.9169C12.3804 22.9197 10.72 22.4327 9.29442 21.5144C9.53697 21.5441 9.78612 21.5556 10.0386 21.5556C11.5005 21.5556 12.8452 21.059 13.9128 20.2208C13.2622 20.208 12.6318 19.9926 12.1095 19.6045C11.5872 19.2165 11.1989 18.6752 10.9989 18.056C11.4661 18.1448 11.9474 18.1262 12.4063 18.0015C11.7002 17.8587 11.0652 17.4761 10.609 16.9186C10.1528 16.361 9.90345 15.6628 9.90327 14.9424V14.9045C10.324 15.1371 10.8058 15.279 11.3173 15.2955C10.6553 14.8549 10.1867 14.1779 10.0073 13.4032C9.82787 12.6285 9.95121 11.8145 10.3521 11.1276C11.1357 12.0912 12.1131 12.8795 13.2207 13.4414C14.3284 14.0034 15.5417 14.3264 16.7821 14.3897C16.6244 13.7203 16.6923 13.0176 16.9752 12.3907C17.2581 11.7639 17.7401 11.2481 18.3464 10.9235C18.9527 10.5989 19.6493 10.4837 20.3278 10.5958C21.0063 10.7079 21.6288 11.0411 22.0984 11.5434C22.7967 11.4053 23.4662 11.1492 24.0784 10.7861C23.8457 11.509 23.3585 12.1229 22.7073 12.5136C23.3258 12.4391 23.9297 12.2729 24.4992 12.0203C24.0809 12.6471 23.5539 13.1942 22.9432 13.6356Z" fill="#3D445C"/>
</g>
<defs>
<clipPath id="clip0_1_71">
<rect width="33" height="33" fill="white"/>
</clipPath>
</defs>
</svg>
